<svg xmlns="http://www.w3.org/2000/svg" data-name="Layer 1" viewBox="0 0 100 125" x="0px" y="0px"><title>Icon</title><path d="M71.45,48.86a2.23,2.23,0,0,0-4.45,0,17,17,0,0,1-34,0,2.23,2.23,0,0,0-4.45,0A21.47,21.47,0,0,0,47.78,70.19V75.6H38.87a2.23,2.23,0,0,0,0,4.45H61.13a2.23,2.23,0,0,0,0-4.45h-8.9V70.19A21.47,21.47,0,0,0,71.45,48.86Z"/><path d="M50,62a13.11,13.11,0,0,0,13.1-13.1V33.06a13.1,13.1,0,1,0-26.2,0v15.8A13.11,13.11,0,0,0,50,62Zm-8.65-28.9a8.65,8.65,0,1,1,17.3,0v15.8a8.65,8.65,0,0,1-17.3,0Z"/><text x="0" y="115" fill="#000000" font-size="5px" font-weight="bold" font-family="'Helvetica Neue', Helvetica, Arial-Unicode, Arial, Sans-serif">Created by Nicolas Morand</text><text x="0" y="120" fill="#000000" font-size="5px" font-weight="bold" font-family="'Helvetica Neue', Helvetica, Arial-Unicode, Arial, Sans-serif">from the Noun Project</text></svg>